<?xml version="1.0" encoding="UTF-8"?>
<svg xmlns="http://www.w3.org/2000/svg" width="128" height="40" viewBox="0 0 128 40" fill="none">
  <path d="M70.5408 13.3015V13.2323C72.3518 12.0912 73.4293 10.3299 73.9152 8.39398C75.0592 3.79957 72.2672 0 65.4097 0L50.5627 0.0210752L45 22.4753L48.2265 28H58.7906C65.7176 28 71.072 24.7785 72.4574 19.1815C73.1546 16.3153 72.3518 14.3041 70.5408 13.3015ZM64.8211 19.0009C64.5434 20.1751 63.7466 21.3763 60.4567 21.3763H53.7138L54.8909 16.5591H61.5976C64.8905 16.5591 65.132 17.7935 64.8211 19.0009ZM66.2065 8.54451C65.965 9.44172 65.2708 10.5346 62.4306 10.5346H56.382L57.3871 6.62064H63.4357C66.3091 6.62365 66.448 7.54494 66.2065 8.54451ZM78.9467 0H100.781L99.2357 6.62366H85.928L84.8897 10.5376H98.3242L96.7788 17.1613H83.2599L82.2548 21.3763H98.3694L96.7426 28H72.0137L78.9467 0ZM128 0L126.337 6.62366H117.69L112.38 28H103.896L109.196 6.62366H101.119L102.664 0H128Z" fill="#14A0FF"></path>
  <path d="M46.598 28.2143H39.5098C33.4855 28.2143 32.0195 26.6612 31.0613 25.3932L28.1142 20.3607L19.3393 28.2174H7.66256H0.317385L4.02624 13.1957L4.88772 10.9207L2.61766 13.1381L0.0997498 15.7044L0 8.19055L8.88675 0.00631461H15.8088L9.24343 26.7431L15.8571 20.5791L32.9021 4.83556L32.9203 4.8659L37.9863 0.00934754H50.328L37.0795 11.8914L39.8151 16.5295L39.8241 16.5234L46.598 28.2143ZM31.9923 3.2976L31.953 3.23087C29.9611 0.330892 26.8839 0.00631474 25.3061 0.0123816C24.8285 -0.0027856 24.5262 0.000247573 24.5262 0.000247573H16.1836L22.9847 11.6123L31.9923 3.2976ZM47.8615 33.3105C48.2877 33.7049 48.454 34.2266 48.3572 34.8788C48.2545 35.5674 47.922 36.1074 47.3567 36.5017C46.7915 36.8961 46.063 37.0932 45.1713 37.0932L43.267 37.0872L42.5748 39.8992H41.541L43.3093 32.716L45.9844 32.722C46.8066 32.722 47.4323 32.9192 47.8615 33.3105ZM47.0968 33.899C46.864 33.6472 46.5134 33.5138 46.0449 33.5016L44.1466 33.4956L43.4544 36.3136L45.2378 36.3197C45.8 36.3197 46.2655 36.1923 46.6403 35.9405C47.0121 35.6887 47.2419 35.3369 47.3295 34.8849C47.4081 34.4784 47.3295 34.1508 47.0968 33.899ZM55.0797 32.719L56.2918 39.9022H55.2732L54.9921 38.0215H51.7427L50.5487 39.9022H49.4424L54.1729 32.719H55.0797ZM54.8772 37.2479L54.3845 33.899L52.2384 37.2479H54.8772ZM65.638 33.2954C66.0582 33.6745 66.2184 34.1902 66.1126 34.8424C66.0491 35.2944 65.8466 35.6887 65.502 36.0315C65.1574 36.3743 64.7131 36.6321 64.166 36.8081L65.2511 39.8385L65.2421 39.9022H64.1418L63.1715 37.0022H61.3216L60.6083 39.9022H59.5685L61.3367 32.719L63.7489 32.7251C64.5861 32.7251 65.2179 32.9162 65.638 33.2954ZM64.8521 33.8717C64.6254 33.6381 64.2688 33.5138 63.7821 33.5016L62.1801 33.4956L61.509 36.2196L63.0294 36.2257C63.5584 36.2257 64.0118 36.0983 64.3867 35.8465C64.7645 35.5947 64.9942 35.258 65.0788 34.8363C65.1544 34.4268 65.0788 34.1053 64.8521 33.8717ZM69.3318 33.4925H71.8255L70.2507 39.9022H71.2814L72.8563 33.4925H75.35L75.5434 32.719H69.5283L69.3318 33.4925ZM82.4715 38.3187L79.8961 32.719H78.8926L77.1243 39.9022H78.1641L79.5334 34.3267L82.1057 39.9022H83.1093L84.8776 32.719H83.8468L82.4715 38.3187ZM87.2232 39.9022H92.1744L92.3678 39.1287H88.4474L89.0761 36.5836H92.4464L92.6368 35.8101H89.2665L89.8348 33.4956H93.6948L93.8882 32.722H88.9945L87.2232 39.9022ZM101.645 33.2954C102.065 33.6745 102.225 34.1902 102.119 34.8424C102.056 35.2944 101.853 35.6887 101.508 36.0315C101.164 36.3743 100.72 36.6321 100.172 36.8081L101.258 39.8385L101.249 39.9022H100.148L99.178 37.0022H97.3281L96.6147 39.9022H95.5749L97.3432 32.719L99.7553 32.7251C100.593 32.7251 101.224 32.9162 101.645 33.2954ZM100.859 33.8717C100.632 33.6381 100.275 33.5138 99.7886 33.5016L98.1865 33.4956L97.5155 36.2196L99.0359 36.2257C99.5649 36.2257 100.018 36.0983 100.393 35.8465C100.771 35.5947 101.001 35.258 101.085 34.8363C101.161 34.4268 101.085 34.1053 100.859 33.8717ZM110.988 34.7999C111.03 34.3844 110.964 34.0143 110.782 33.6836C110.601 33.353 110.326 33.0951 109.954 32.9131C109.585 32.7281 109.156 32.631 108.672 32.6219C108.174 32.6128 107.699 32.6917 107.249 32.8555C106.798 33.0223 106.429 33.2589 106.145 33.5623C105.861 33.8687 105.692 34.2206 105.631 34.6179C105.52 35.4097 105.988 36.0255 107.04 36.4623L107.354 36.5866L108.291 36.8961C108.969 37.1387 109.253 37.524 109.147 38.0518C109.071 38.4128 108.857 38.701 108.5 38.9163C108.143 39.1317 107.699 39.2348 107.167 39.2288C106.635 39.2227 106.23 39.0923 105.952 38.8405C105.674 38.5887 105.562 38.249 105.616 37.8213L104.583 37.8152C104.534 38.2338 104.61 38.6069 104.809 38.9345C105.009 39.2621 105.311 39.523 105.719 39.7111C106.124 39.8992 106.581 39.9962 107.082 39.9993C107.602 40.0084 108.095 39.9325 108.557 39.7718C109.02 39.611 109.389 39.3835 109.67 39.0892C109.951 38.795 110.12 38.4461 110.181 38.0397C110.302 37.1964 109.857 36.5624 108.842 36.1347L108.437 35.9769L107.629 35.716C106.898 35.4612 106.581 35.0912 106.68 34.5997C106.753 34.2236 106.961 33.9263 107.309 33.7109C107.657 33.4925 108.083 33.3894 108.588 33.3955C109.065 33.4015 109.425 33.5259 109.67 33.7686C109.915 34.0112 110.005 34.354 109.948 34.7969L110.988 34.7999Z" fill="white"></path>
</svg>
