<svg width="27" height="32" viewBox="0 0 27 32" fill="none" xmlns="http://www.w3.org/2000/svg">
<g clip-path="url(#clip0_316_133)">
<path d="M9.70033 32.0007C9.68766 31.9845 9.67879 31.9607 9.66295 31.9544C8.46574 31.483 8.10404 30.9541 8.10404 29.6862C8.10404 28.3107 8.09898 26.9353 8.10848 25.5598C8.10848 25.351 8.06033 25.256 7.84306 25.1928C6.3532 24.7602 5.39986 23.5048 5.39733 21.9624C5.39099 18.4612 5.39099 14.9615 5.39733 11.4633C5.39733 10.9206 5.63994 10.6768 6.1866 10.6768C11.0616 10.6768 15.9366 10.6768 20.8116 10.6768C21.357 10.6768 21.6034 10.9218 21.6034 11.462C21.6034 14.9632 21.6034 18.4627 21.6034 21.9605C21.6002 23.5154 20.645 24.7621 19.1298 25.2016C18.9398 25.2578 18.8923 25.3435 18.8935 25.5261C18.8999 26.964 18.898 28.402 18.8967 29.84C18.8967 30.9772 18.3899 31.635 17.2757 31.9569C17.2599 31.9613 17.2504 31.9857 17.2371 32.0013H16.4136C16.394 31.9795 16.3781 31.9457 16.354 31.9388C15.2582 31.5756 14.8255 30.7922 14.8407 29.6881C14.8591 28.3357 14.8407 26.9834 14.8515 25.6311C14.8515 25.3773 14.7736 25.3185 14.5304 25.3235C13.8456 25.3385 13.1602 25.3423 12.4755 25.3235C12.1993 25.3154 12.1492 25.4117 12.1511 25.6599C12.1632 26.9728 12.1568 28.2814 12.1568 29.5924C12.1568 30.9547 11.8008 31.478 10.5371 31.9757C10.5308 31.9757 10.5289 31.9938 10.5251 32.0038L9.70033 32.0007Z" fill="white"/>
<path d="M19.7725 0.00195312C20.3825 0.3677 20.4325 0.775335 19.9258 1.27675C19.4862 1.7144 19.0535 2.15204 18.6012 2.57593C18.4251 2.74036 18.4631 2.80538 18.6392 2.9348C20.5396 4.32839 21.5208 6.20276 21.6031 8.53416C21.6228 9.08935 21.3694 9.33255 20.7987 9.33255C15.9346 9.33255 11.0704 9.33255 6.20597 9.33255C5.63586 9.33255 5.38248 9.08935 5.40466 8.53104C5.4851 6.21152 6.45934 4.34214 8.34638 2.95418C8.54972 2.80413 8.57759 2.72973 8.38438 2.55155C7.96758 2.1683 7.57421 1.76066 7.17134 1.36366C6.59744 0.796592 6.61264 0.477736 7.23468 0.00320381H7.5514C7.79148 0.0932337 7.96885 0.262665 8.14494 0.440849C8.6403 0.937264 9.14642 1.42305 9.63671 1.92322C9.77607 2.06576 9.89009 2.08014 10.0757 2.00824C12.1705 1.18797 14.3039 1.10169 16.4266 1.84069C17.0411 2.05451 17.3901 1.98199 17.8075 1.51183C18.2883 0.969774 18.7875 0.42897 19.3911 0.00507935L19.7725 0.00195312Z" fill="white"/>
<path d="M0.00370021 17.3455C0.00370021 15.7731 -0.00706791 14.2014 0.00813479 12.6296C0.0163696 11.7887 0.447115 11.1766 1.21738 10.8446C1.97752 10.5183 2.70661 10.6327 3.34576 11.1629C3.57096 11.3462 3.75124 11.5774 3.87311 11.8392C3.99498 12.101 4.05529 12.3866 4.04952 12.6746C4.05712 15.7875 4.06409 18.8998 4.04952 22.0121C4.04982 22.2761 3.99678 22.5376 3.8935 22.7811C3.79023 23.0247 3.6388 23.2455 3.44806 23.4306C3.25731 23.6157 3.03109 23.7614 2.78262 23.8592C2.53415 23.957 2.26842 24.005 2.00096 24.0002C0.883559 23.9927 0.0132011 23.115 0.00686666 21.9671C-0.00136813 20.4266 0.00686666 18.8861 0.00686666 17.3455H0.00370021Z" fill="white"/>
<path d="M26.9969 17.3319C26.9969 18.9037 27.0058 20.4754 26.9937 22.0472C26.991 22.467 26.8518 22.8749 26.5966 23.2108C26.3414 23.5466 25.9836 23.7927 25.5761 23.9128C25.1647 24.0374 24.7238 24.0296 24.3173 23.8904C23.9107 23.7513 23.5596 23.488 23.3147 23.1388C23.0717 22.7944 22.9439 22.3837 22.9492 21.9641C22.9466 18.883 22.9466 15.8018 22.9492 12.7204C22.9492 11.6575 23.7232 10.7891 24.7196 10.6891C25.7965 10.5815 26.7163 11.2161 26.9506 12.2458C26.9876 12.4399 27.0027 12.6374 26.9956 12.8348C26.9994 14.3353 26.9994 15.8343 26.9956 17.3319H26.9969Z" fill="white"/>
<path d="M10.1373 6.44166C10.0449 6.44511 9.95277 6.43013 9.86637 6.39764C9.77997 6.36514 9.7011 6.31579 9.63446 6.25252C9.56782 6.18926 9.51478 6.11339 9.47852 6.02944C9.44226 5.9455 9.42352 5.8552 9.42342 5.76394C9.41969 5.67279 9.43438 5.58182 9.46662 5.49633C9.49885 5.41084 9.548 5.33253 9.6112 5.26597C9.67439 5.19941 9.75037 5.14592 9.83472 5.10862C9.91906 5.07132 10.0101 5.05095 10.1025 5.0487C10.1977 5.0457 10.2925 5.06149 10.3815 5.09513C10.4704 5.12878 10.5517 5.17962 10.6205 5.24466C10.6893 5.3097 10.7442 5.38764 10.7821 5.47391C10.82 5.56018 10.84 5.65304 10.8411 5.74706C10.842 5.83853 10.8244 5.92927 10.7894 6.01395C10.7544 6.09864 10.7026 6.17558 10.637 6.24027C10.5715 6.30495 10.4935 6.35608 10.4077 6.39066C10.3219 6.42524 10.23 6.44258 10.1373 6.44166Z" fill="black"/>
<path d="M16.8903 6.44145C16.7043 6.44514 16.5244 6.37586 16.3901 6.2488C16.2558 6.12175 16.178 5.9473 16.1739 5.76373C16.1731 5.67025 16.1911 5.57754 16.2267 5.49093C16.2623 5.40431 16.3149 5.32549 16.3815 5.25898C16.448 5.19247 16.5272 5.13959 16.6146 5.10336C16.7019 5.06713 16.7956 5.04827 16.8903 5.04786C16.9824 5.0473 17.0737 5.06513 17.1587 5.10029C17.2437 5.13544 17.3206 5.18719 17.3848 5.25242C17.449 5.31765 17.4991 5.39502 17.5323 5.47988C17.5654 5.56474 17.5808 5.65534 17.5776 5.74622C17.5814 5.8371 17.5663 5.92778 17.5334 6.01272C17.5004 6.09765 17.4502 6.17504 17.3858 6.24014C17.3215 6.30524 17.2443 6.35667 17.1591 6.39129C17.0739 6.42591 16.9824 6.44298 16.8903 6.44145Z" fill="black"/>
</g>
<defs>
<clipPath id="clip0_316_133">
<rect width="27" height="32" fill="white"/>
</clipPath>
</defs>
</svg>
