<svg width="32" height="32" viewBox="0 0 32 32" fill="none" xmlns="http://www.w3.org/2000/svg">
<path d="M10.5324 21.0001L9.60838 18.9001H5.14438L4.22038 21.0001H2.98438L6.78838 12.6001H7.97638L11.7924 21.0001H10.5324ZM5.56438 17.9401H9.18838L7.37638 13.8241L5.56438 17.9401Z" fill="#28F0E4"/>
<path d="M16.3214 12.6001C18.5054 12.6001 19.8254 13.7041 19.8254 15.5281C19.8254 17.3521 18.5054 18.4561 16.3214 18.4561H14.2454V21.0001H13.0454V12.6001H16.3214ZM16.2854 17.4121C17.8214 17.4121 18.6254 16.7281 18.6254 15.5281C18.6254 14.3281 17.8214 13.6441 16.2854 13.6441H14.2454V17.4121H16.2854Z" fill="#28F0E4"/>
<path d="M24.8644 12.6001C27.0484 12.6001 28.3684 13.7041 28.3684 15.5281C28.3684 17.3521 27.0484 18.4561 24.8644 18.4561H22.7884V21.0001H21.5884V12.6001H24.8644ZM24.8284 17.4121C26.3644 17.4121 27.1684 16.7281 27.1684 15.5281C27.1684 14.3281 26.3644 13.6441 24.8284 13.6441H22.7884V17.4121H24.8284Z" fill="#28F0E4"/>
<path d="M27.3241 5.74963C27.5193 5.53636 27.7094 5.31526 27.9117 5.10981C28.114 4.90436 28.3549 4.87379 28.5201 5.03872C28.6852 5.20365 28.6666 5.42972 28.4543 5.6437C28.0661 6.03399 27.6772 6.4257 27.2819 6.80817C26.9781 7.1032 26.6721 7.10462 26.3676 6.80817C25.9659 6.4193 25.5712 6.02262 25.1766 5.62522C24.9622 5.40697 24.9429 5.18943 25.1194 5.02166C25.296 4.85389 25.499 4.87521 25.7071 5.08209C25.9458 5.31882 26.1739 5.56622 26.4069 5.80863L26.4784 5.77949V5.50294C26.4784 4.48421 26.4784 3.46549 26.4784 2.44605C26.4784 2.15031 26.635 1.98538 26.8837 2.00102C27.1089 2.01524 27.234 2.16666 27.2347 2.44676C27.2347 3.42994 27.2347 4.41312 27.2347 5.39631V5.68636L27.3241 5.74963Z" fill="#28F0E4"/>
<rect x="22.5" y="0.5" width="9" height="9" rx="1.5" stroke="#28F0E4"/>
<mask id="mask0_1746_1058" style="mask-type:alpha" maskUnits="userSpaceOnUse" x="0" y="0" width="32" height="32">
<rect x="0.5" y="0.5" width="31" height="31" rx="3.5" stroke="#28F0E4"/>
</mask>
<g mask="url(#mask0_1746_1058)">
<path d="M32 7V32H0V0H26.0923V7H27.0769H32Z" fill="#28F0E4"/>
</g>
</svg>
