<svg width="26" height="32" viewBox="0 0 26 32" fill="none" xmlns="http://www.w3.org/2000/svg">
<g clip-path="url(#clip0_316_139)">
<path d="M17.6944 5.08342C18.9032 3.65834 19.4992 1.82496 19.3556 -0.0263672C17.5303 0.156902 15.8462 1.0235 14.6512 2.3944C14.0514 3.07063 13.5929 3.85679 13.3022 4.7078C13.0114 5.55882 12.8941 6.45797 12.9569 7.35372C13.8714 7.36365 14.7757 7.16364 15.598 6.76957C16.4203 6.37549 17.1381 5.79819 17.6944 5.08342Z" fill="white"/>
<path d="M21.7207 17.0045C21.7034 15.8861 21.9658 14.7806 22.4848 13.7856C23.1047 12.6169 24.0201 11.6254 25.1426 10.9068C24.4871 9.96578 23.6167 9.18916 22.6013 8.63923C21.5858 8.0893 20.4536 7.78137 19.2955 7.74017C16.8104 7.485 14.445 9.20572 13.1892 9.20572C11.9333 9.20572 9.97985 7.77288 7.9134 7.81214C6.55201 7.85508 5.22582 8.24858 4.06699 8.95342C2.90816 9.65826 1.95716 10.6498 1.30875 11.8293C0.878314 12.5852 0.554199 13.3952 0.345294 14.237C-0.844075 18.8823 1.00975 24.594 3.33533 27.9765C4.66423 29.9393 6.27221 32.1049 8.37187 32.0264C10.4715 31.9479 11.1626 30.7179 13.6078 30.7179C16.0529 30.7179 16.7373 32.0264 18.8769 31.9871C21.0164 31.9479 22.4317 30.0244 23.7606 28.0616C24.7167 26.6587 25.4619 25.1272 25.9732 23.5145C24.6975 22.9551 23.6155 22.041 22.8601 20.8845C22.1046 19.7281 21.7086 18.3795 21.7207 17.0045Z" fill="white"/>
</g>
<defs>
<clipPath id="clip0_316_139">
<rect width="26" height="32" fill="white"/>
</clipPath>
</defs>
</svg>
