<svg width="32" height="32" viewBox="0 0 32 32" fill="none" xmlns="http://www.w3.org/2000/svg">
<rect x="0.5" y="0.5" width="31" height="31" rx="3.5" stroke="#28F0E4"/>
<path d="M4 22.9808V9.01928C4 8.15498 4.63063 8.00039 5.52 8.00039H18.6575C21.3113 8.00039 23.9652 8.00039 26.6194 8.00039C26.9944 8.00039 27.4363 7.97849 27.6875 8.26262C27.8563 8.45539 28 8.66693 28 9.02116C28 9.3754 28 22.9808 28 22.9808C28 23.8639 27.3675 23.9997 26.4781 23.9997H12.1031C9.85562 23.9997 7.60771 23.9997 5.35938 23.9997C4.99437 23.9997 4.525 24.0185 4.28125 23.7388C4.11062 23.5466 3.99999 23.3632 4 22.9808ZM27.0525 22.38V9.52998C26.9581 9.59757 26.8881 9.64576 26.8206 9.69646C23.6719 12.0572 20.5233 14.4175 17.375 16.7774C16.5069 17.4276 15.4919 17.4233 14.625 16.7736L5.15875 9.68019C5.09625 9.63137 5.02687 9.58568 4.94437 9.52685V22.3769C5.0375 22.2661 5.1025 22.1891 5.165 22.1147L9.42562 16.8544C9.65625 16.569 9.88125 16.2786 10.1231 16.0032C10.1615 15.9585 10.2082 15.9217 10.2607 15.8951C10.3133 15.8685 10.3705 15.8526 10.4292 15.8481C10.4879 15.8437 10.5469 15.8509 10.6028 15.8694C10.6587 15.8878 10.7104 15.9171 10.755 15.9556C10.8427 16.0289 10.9 16.1324 10.9155 16.2457C10.931 16.3591 10.9036 16.4741 10.8388 16.5683C10.8079 16.6136 10.7745 16.6571 10.7388 16.6985L5.77062 22.8319C5.715 22.9014 5.66188 22.9721 5.59625 23.0566H26.4006C26.3431 22.979 26.3037 22.922 26.2606 22.8688L23.2081 19.1012C22.5448 18.2826 21.8817 17.4633 21.2188 16.6434C20.9912 16.3606 21.0625 16.0088 21.3631 15.883C21.5788 15.7929 21.7725 15.8636 21.9688 16.1058L25.5812 20.565C26.0625 21.1584 26.5419 21.7504 27.0525 22.38ZM5.71125 8.9373L6 9.15634L15.1425 16.0107C15.7281 16.4488 16.2675 16.4519 16.8556 16.0107L26 9.1626C26.0837 9.10002 26.1656 9.03743 26.2881 8.94042L5.71125 8.9373Z" fill="#28F0E4"/>
</svg>
