<svg width="20" height="20" viewBox="0 0 20 20" fill="none" xmlns="http://www.w3.org/2000/svg">
<path d="M12.6526 13.798C9.12584 16.5443 4.35172 15.8552 1.73614 12.6603C-0.762835 9.60804 -0.544031 5.09188 2.263 2.27864C5.07003 -0.534602 9.5836 -0.76862 12.6404 1.71988C15.8462 4.32862 16.5508 9.11984 13.7754 12.6805C13.8575 12.7259 13.9712 12.7597 14.0461 12.8339C15.9222 14.706 17.7972 16.5781 19.6709 18.4503C19.9351 18.7131 20.0646 19.0083 19.9682 19.3726C19.9294 19.5089 19.8577 19.6335 19.7594 19.7355C19.6612 19.8375 19.5393 19.9138 19.4047 19.9576C19.27 20.0015 19.1266 20.0115 18.9872 19.9868C18.8477 19.9621 18.7165 19.9036 18.605 19.8162C18.5292 19.752 18.4571 19.6834 18.389 19.611C16.5359 17.7566 14.6826 15.9018 12.829 14.0464C12.7635 13.9686 12.7045 13.8855 12.6526 13.798ZM7.76982 1.7206C6.57598 1.71846 5.40832 2.0706 4.41455 2.73247C3.42079 3.39434 2.64557 4.3362 2.18696 5.4389C1.72835 6.54161 1.60696 7.75562 1.83814 8.92735C2.06932 10.0991 2.64269 11.1759 3.4857 12.0216C4.32872 12.8673 5.40352 13.4438 6.57413 13.6783C7.74474 13.9128 8.95858 13.7947 10.0621 13.3389C11.1656 12.8832 12.1092 12.1102 12.7735 11.1179C13.4378 10.1255 13.793 8.95833 13.7941 7.76399C13.7951 6.16375 13.1612 4.62855 12.0317 3.49546C10.9022 2.36237 9.36939 1.72403 7.76982 1.7206Z" fill="#28F0E4"/>
</svg>
