<svg width="32" height="32" viewBox="0 0 32 32" fill="none" xmlns="http://www.w3.org/2000/svg">
<g clip-path="url(#clip0_1226_1214)">
<path d="M16.0577 31.9786C13.8829 31.9786 11.709 31.9954 9.53506 31.9721C8.19792 31.9581 6.84401 31.9208 5.58048 31.438C2.61548 30.3056 0.748149 28.2011 0.234725 25.0304C0.0614096 23.9567 0.0204102 22.8541 0.0148193 21.7683C-0.00754395 17.7451 -0.00754395 13.7216 0.0148193 9.69771C0.0222738 8.29968 0.0558191 6.8886 0.56272 5.56979C1.69766 2.61994 3.79701 0.733534 6.95769 0.264728C8.50075 0.0354507 10.0858 0.0410423 11.6521 0.0224019C14.5239 -0.0130149 17.3967 0.0140132 20.2685 0.0102852C20.603 0.0102852 20.9208 0.0429066 21.177 0.283368C21.5003 0.585343 21.6429 0.949761 21.5302 1.38408C21.4871 1.591 21.3826 1.78009 21.2303 1.9266C21.078 2.07311 20.885 2.17021 20.6766 2.2052C20.5053 2.2352 20.3315 2.248 20.1576 2.24341C16.6568 2.25179 13.157 2.23595 9.65712 2.27882C8.64659 2.27807 7.63877 2.38334 6.65019 2.59291C4.39523 3.10646 2.59126 5.25384 2.39092 7.60439C2.2791 8.9232 2.23717 10.2513 2.23158 11.5748C2.21574 15.1444 2.21388 18.715 2.25581 22.2846C2.26641 23.3065 2.36901 24.3252 2.56237 25.3286C2.90341 27.079 4.8192 29.4034 7.5997 29.6066C8.96665 29.7073 10.3392 29.7595 11.709 29.7651C15.7157 29.78 19.7327 29.7921 23.7441 29.7455C26.9206 29.7082 29.6508 26.9401 29.7282 23.761C29.7543 22.691 29.7356 21.6173 29.7505 20.5511C29.7626 19.6899 30.509 19.1409 31.2619 19.4327C31.6468 19.5818 31.9524 19.8707 31.9524 20.278C31.9524 22.0861 32.1574 23.9082 31.684 25.6912C30.7261 29.3112 27.4425 31.9208 23.6966 31.9795C21.1509 32.0205 18.6043 31.9879 16.0558 31.9879L16.0577 31.9786Z" fill="#28F0E4"/>
<path d="M15.9671 18.9658C16.0789 18.8362 16.1637 18.7244 16.2615 18.6265C20.3055 14.5797 24.3502 10.5341 28.3955 6.48974C28.4906 6.38754 28.5917 6.29106 28.6983 6.20081C28.9105 6.03667 29.1748 5.95473 29.4426 5.97009C29.7104 5.98544 29.9637 6.09706 30.1557 6.28438C30.3477 6.47171 30.4657 6.72212 30.4877 6.98952C30.5098 7.25691 30.4346 7.52328 30.2758 7.73958C30.188 7.84767 30.093 7.9498 29.9916 8.04528L16.9687 21.0693C16.296 21.7423 15.7723 21.7628 15.0651 21.1439C13.1748 19.4911 11.2844 17.8377 9.39411 16.1837C8.86019 15.7177 8.77074 15.0336 9.17794 14.5471C9.60377 14.04 10.2961 14.0083 10.8468 14.4893C12.4166 15.8562 13.9832 17.2263 15.5468 18.5995C15.6689 18.7057 15.7919 18.8111 15.9671 18.9658Z" fill="#28F0E4"/>
</g>
<defs>
<clipPath id="clip0_1226_1214">
<rect width="32" height="32" fill="white"/>
</clipPath>
</defs>
</svg>
